<mxfile host="www.draw.io" modified="2019-10-17T05:18:59.319Z" agent="Mozilla/5.0 (Macintosh; Intel Mac OS X 10_14_5) AppleWebKit/537.36 (KHTML, like Gecko) Chrome/77.0.3865.90 Safari/537.36" etag="Yx8CQqpovsML7tqoQp4L" version="12.1.2" type="github" pages="1">
  <diagram id="j8L4Z0SMTbn24Io-HArN" name="第 1 页">
    <mxGraphModel dx="494" dy="727" grid="1" gridSize="10" guides="1" tooltips="1" connect="1" arrows="1" fold="1" page="1" pageScale="1" pageWidth="827" pageHeight="1169" math="0" shadow="0">
      <root>
        <mxCell id="0"/>
        <mxCell id="1" parent="0"/>
        <mxCell id="eRHKTp4voW0tq-zbOH36-1" value="" style="rounded=0;whiteSpace=wrap;html=1;" vertex="1" parent="1">
          <mxGeometry x="100" y="160" width="120" height="60" as="geometry"/>
        </mxCell>
        <mxCell id="eRHKTp4voW0tq-zbOH36-2" value="" style="whiteSpace=wrap;html=1;aspect=fixed;" vertex="1" parent="1">
          <mxGeometry x="240" y="280" width="80" height="80" as="geometry"/>
        </mxCell>
      </root>
    </mxGraphModel>
  </diagram>
</mxfile>
